# xmcd
# Track frame offsets:
# 150
# 13890
# 28415
# 43275
# 55272
# 69465
# 82427
# 97045
# 110155
# 128510
# 141370
# 157260
# 169495
#
# Disc length: 2468 seconds
# Revision: 0
# Processed by: cddbd v1.4PL0 Copyright (c) Steve Scherf et al.
# Submitted via: VisiTrax 2.9.5.181 - For more info visit www.synapsa.com
#
DISCID=cf09a20d
DTITLE=Sanden, Cato - New Steps
DYEAR=1993
DGENRE=Country
TTITLE0=New Steps
TTITLE1=Still Got My Mind Set On You
TTITLE2=You Should Have Seen Her
TTITLE3=We're On the Run
TTITLE4=Down Here
TTITLE5=She's Closing Her Door
TTITLE6=Old Moon
TTITLE7=Talking 'bout Love
TTITLE8=It's Alright
TTITLE9=Stranded
TTITLE10=The Music Man
TTITLE11=I've Got You
TTITLE12=Before I Go To Sleep
EXTD=
EXTT0=
EXTT1=
EXTT2=
EXTT3=
EXTT4=
EXTT5=
EXTT6=
EXTT7=
EXTT8=
EXTT9=
EXTT10=
EXTT11=
EXTT12=
PLAYORDER=
